<?xml version="1.0" encoding="UTF-8"?>
<svg xmlns="http://www.w3.org/2000/svg" viewBox="0 0 190.92 46.96">
  <g>
    <path d="M103.95,16.65c-5.54,11.05-16.97,18.63-30.17,18.63h-20.49"/>
    <path d="M137.63,35.29h-20.47c-13.21,0-24.64-7.59-30.18-18.65"/>
    <line x1="42.14" y1="35.27" y2="35.27"/>
    <line x1="190.92" y1="35.27" x2="148.78" y2="35.27"/>
    <path d="M116.89,27.95c-4.07,1.09-7.84,2.93-11.15,5.35"/>
    <path d="M74.04,27.95c4.08,1.09,7.85,2.93,11.16,5.35"/>
    <path d="M110.69,23.5c-6.87,5.77-12.19,13.32-15.23,21.96-3.03-8.62-8.32-16.17-15.17-21.93"/>
    <path d="M52.69,35.04c19.86-1.94,36.35-15.36,42.76-33.54,6.39,18.18,22.86,31.6,42.71,33.57"/>
    <path d="M110.69,23.5c-6.87,5.77-12.19,13.32-15.23,21.96-3.03-8.62-8.32-16.17-15.17-21.93"/>
    <path d="M84.76,23.46c4.83-4.05,8.56-9.37,10.7-15.43,2.13,6.06,5.85,11.37,10.67,15.42l.05.04c-4.83,4.05-8.57,9.37-10.71,15.44-2.13-6.06-5.85-11.37-10.67-15.42l-.04-.05Z"/>
    <path d="M47.72,31.41c1.46,1.74,3.38,3.09,5.57,3.86-2.19.77-4.1,2.11-5.57,3.85v.02c-1.48-1.74-3.4-3.09-5.59-3.86,2.19-.77,4.1-2.11,5.57-3.85h.02Z"/>
    <path d="M143.21,31.41c1.46,1.74,3.38,3.09,5.57,3.86-2.19.77-4.1,2.11-5.57,3.85v.02c-1.48-1.74-3.4-3.09-5.59-3.86,2.19-.77,4.1-2.11,5.57-3.85h.02Z"/>
  </g>
</svg>
