<?xml version="1.0" encoding="UTF-8"?>
<svg id="Layer_2" data-name="Layer 2" xmlns="http://www.w3.org/2000/svg" viewBox="0 0 490.64 108.33">
  <defs>
    <style>
      .cls-1 {
        fill: #b00;
      }

      .cls-2 {
        fill: #621;
      }
    </style>
  </defs>
  <g id="Layer_1-2" data-name="Layer 1">
    <g>
      <path class="cls-2" d="M394.35,33.74c-1.68,1.35-3.69,2.03-6.03,2.03-.86,0-1.58-.2-2.18-.6-.13-.07-.25-.14-.34-.25-.1-.1-.22-.21-.34-.34.06-.53.43-1.22,1.09-2.08.05-.08.12-.17.2-.27.22-.28.52-.6.89-.97.16.1.31.19.45.27.13.08.28.16.45.22.53.3,1.02.45,1.48.45.4,0,.68-.05.85-.15.39-.3.59-.72.59-1.29-.04-.43-.22-.69-.54-.79-.36-.13-.79-.2-1.29-.2h-.54c.06-.69,1.18-2.64,3.36-5.83,2.28-3.27,3.46-5.29,3.56-6.09-.17.03-.33.05-.5.05h-.65c-.36-.03-1.12-.05-2.28-.05h-4.7c-1.39,0-2.87,1-4.43,2.99-.1.13-.21.27-.31.42-1.19,1.58-2.39,3.69-3.62,6.33-.26.59-.51,1.16-.74,1.7-.24.55-.46,1.1-.69,1.66v1.93c.07.83.38,1.71.94,2.67.3.46.59.92.89,1.38.3.46.63.94.99,1.44-.07.46-.5,1.3-1.29,2.52-.86,1.32-1.29,2.39-1.29,3.22,0,.59.14,1.09.45,1.49.33.43.89.64,1.68.64.63,0,1.09-.1,1.39-.3.36-.16.54-.46.54-.89-.07-.66-.35-1.1-.85-1.34-.33-.1-.64-.19-.94-.3-.3-.1-.59-.19-.89-.3.4-1.18.85-2.08,1.33-2.67.53-.59,1.12-.89,1.78-.89h5.99c1.35-.07,2.58-.48,3.71-1.23,1.19-.83,2.57-2.56,4.15-5.2v-1.88c-.3.23-1.07,1.06-2.32,2.48ZM381.64,27.4c.13-.1.34-.56.64-1.38.33-.92.85-1.9,1.53-2.92h6.88c-.1.4-.97,1.91-2.62,4.55-.92,1.49-1.71,2.72-2.37,3.71-.17.25-.33.48-.48.69-.46.65-.86,1.17-1.21,1.53-.95-.76-1.52-1.45-1.68-2.08-.19-.66-.43-1.07-.69-1.24v-2.87Z"/>
      <path class="cls-2" d="M373.48,38.03c-.43-.33-.64-.71-.64-1.14v-13.31c-.07-1.55-.3-2.73-.69-3.56-.63-1.22-1.64-1.83-3.02-1.83h-4.7c-.16.33-.61.81-1.33,1.44-.83.82-1.68,1.5-2.57,2.03h-.74c0-1.49.05-4.21.15-8.16.1-3.99.15-6.83.15-8.51,0-2.77-.1-4.44-.3-5h-7.12c.07.1.27.3.62.6.35.3.83.72,1.46,1.29.16.16.31.3.45.42.13.11.28.24.45.37.1.46.16.96.19,1.51.04.54.05,1.14.05,1.81v.64c-.07,1.65-.11,3.45-.13,5.39-.02,1.94-.04,4.06-.07,6.33-.04,2.28-.05,5.17-.05,8.71v12.51c.59-.19,1.05-.3,1.38-.3.23,0,.68.05,1.33.15.69.1,1.27.14,1.73.14v-15.48c.3-.27.86-.56,1.68-.89.89-.4,1.46-.6,1.68-.6,1.55.07,2.64.18,3.27.35,1.12.39,1.68,1.1,1.68,2.13v14.24c.83.1,1.46.15,1.88.15.26,0,1.23-.15,2.92-.45.39-.07.81-.11,1.24-.14.43-.04.87-.05,1.33-.05-1.09-.26-1.85-.53-2.28-.79Z"/>
      <path class="cls-2" d="M350.46,34.54c-.28.23-.56.46-.82.69-.26.16-.71.25-1.33.25-1.06,0-1.68-.1-1.88-.3-.2-.23-.3-.69-.3-1.38,0-2.31-.05-4.44-.15-6.42-.07-1.02-.11-1.88-.12-2.59-.02-.71-.06-1.27-.13-1.7.07-.23.2-.51.4-.84h3.56c.26-.59.5-1.16.71-1.7.22-.54.45-1.09.72-1.65v-.98h-4.8c-.1-.1-.19-.2-.27-.3-.08-.1-.16-.2-.22-.3-.17-.2-.25-.46-.25-.79v-8.21c0-1.12.39-2.08,1.18-2.87.13-.1.25-.21.37-.32.11-.11.25-.25.42-.42h-1.04c-1.33.86-2.86,1.76-4.56,2.72-.06.04-.12.07-.18.1-1.78.95-2.84,1.47-3.17,1.53v.79c.86,0,1.52.05,1.98.14.46.13.69.46.69.99v25.03c.07.63.39,1.32.99,2.08.82.98,1.78,1.48,2.87,1.48h2.67c.76-.07,1.42-.39,1.98-.98.66-.69,1.19-1.55,1.58-2.57v-2.22c-.33.27-.63.51-.91.74Z"/>
      <path class="cls-2" d="M309.14,20.23c-1.75-1.58-3.35-2.37-4.8-2.37h-1.73c-1.94.07-4.02,1.36-6.23,3.91-2.21,2.61-3.31,4.99-3.31,7.17v2.57c.07,1.35.78,2.9,2.13,4.65,1.81,2.28,4,3.41,6.57,3.41,2.93,0,5.48-1.53,7.62-4.6,1.71-2.44,2.57-4.52,2.57-6.23v-2.87c0-2.01-.94-3.89-2.82-5.64ZM307.8,34.47c-1.03.92-2.11,1.39-3.27,1.39-1.45-.07-3.18-.79-5.19-2.18-2.41-1.71-3.61-3.51-3.61-5.39v-2.22c0-1.19.54-2.28,1.63-3.27.95-.86,1.83-1.29,2.62-1.29,1.85.07,3.74.97,5.69,2.72,2.28,2.14,3.42,4.63,3.42,7.47-.04,1.09-.46,2.01-1.29,2.77Z"/>
      <path class="cls-2" d="M290.86,34.54c-.28.23-.56.46-.82.69-.26.16-.71.25-1.33.25-1.06,0-1.68-.1-1.88-.3-.2-.23-.3-.69-.3-1.38,0-2.31-.05-4.44-.15-6.42-.07-1.02-.11-1.88-.12-2.59-.02-.71-.06-1.27-.13-1.7.07-.23.2-.51.4-.84h3.56c.26-.59.5-1.16.72-1.7.21-.54.45-1.09.71-1.65v-.98h-4.79c-.1-.1-.19-.2-.27-.3-.08-.1-.16-.2-.22-.3-.17-.2-.25-.46-.25-.79v-8.21c0-1.12.39-2.08,1.18-2.87.13-.1.26-.21.37-.32l.42-.42h-1.04c-1.33.86-2.86,1.76-4.56,2.72-.06.04-.12.07-.18.1-1.78.95-2.84,1.47-3.16,1.53v.79c.86,0,1.52.05,1.97.14.46.13.69.46.69.99v25.03c.07.63.39,1.32.99,2.08.82.98,1.78,1.48,2.87,1.48h2.67c.76-.07,1.42-.39,1.98-.98.66-.69,1.19-1.55,1.58-2.57v-2.22c-.33.27-.63.51-.91.74Z"/>
      <path class="cls-2" d="M250.08,33.74c-1.68,1.35-3.69,2.03-6.03,2.03-.86,0-1.58-.2-2.18-.6-.13-.07-.25-.14-.34-.25-.1-.1-.22-.21-.35-.34.06-.46.34-1.05.86-1.76.07-.1.15-.21.24-.31.23-.33.59-.74,1.09-1.24.16.1.31.19.45.27.13.08.28.16.44.22.53.3,1.03.45,1.49.45.4,0,.68-.05.84-.15.4-.3.6-.72.6-1.29-.04-.43-.22-.69-.54-.79-.37-.13-.79-.2-1.29-.2h-.55c.07-.69,1.19-2.64,3.37-5.83,2.27-3.27,3.46-5.29,3.56-6.09-.16.03-.33.05-.49.05h-.65c-.36-.03-1.12-.05-2.28-.05h-4.7c-1.39,0-2.87,1-4.44,2.99-.1.13-.21.27-.31.42-1.18,1.58-2.39,3.69-3.61,6.33-.26.59-.51,1.16-.74,1.7-.23.55-.46,1.1-.69,1.66v1.93c.07.83.38,1.71.94,2.67.3.46.6.92.89,1.38.3.46.63.94.99,1.44-.07.46-.5,1.3-1.29,2.52-.86,1.32-1.29,2.39-1.29,3.22,0,.59.15,1.09.44,1.49.33.43.89.64,1.68.64.63,0,1.09-.1,1.38-.3.36-.16.55-.46.55-.89-.07-.66-.35-1.1-.85-1.34-.33-.1-.64-.19-.94-.3-.3-.1-.6-.19-.89-.3.4-1.18.84-2.08,1.33-2.67.53-.59,1.12-.89,1.78-.89h5.99c1.35-.07,2.58-.48,3.71-1.23,1.19-.83,2.57-2.56,4.15-5.2v-1.88c-.3.23-1.07,1.06-2.32,2.48ZM237.37,27.4c.13-.1.34-.56.64-1.38.33-.92.84-1.9,1.53-2.92h6.88c-.1.4-.97,1.91-2.62,4.55-.92,1.49-1.71,2.72-2.38,3.71-.33.5-.63.93-.91,1.3-.28.37-.54.68-.77.93-.96-.76-1.52-1.45-1.68-2.08-.19-.66-.43-1.07-.69-1.24v-2.87Z"/>
      <path class="cls-2" d="M228.62,35.81c-.4.3-.66.44-.79.44-.13-.13-.22-.19-.25-.19-.1-.07-.24-.14-.44-.22-.2-.08-.45-.19-.74-.32v-14.54c0-.79-.34-1.52-1.04-2.18-.69-.66-1.37-.98-2.03-.98h-3.27c-.82.07-1.86.68-3.12,1.83-1.42,1.32-2.46,2.09-3.12,2.32-.5-1.52-1.22-2.64-2.17-3.36-.76-.53-1.53-.79-2.32-.79h-2.23c-.59,0-1.65.69-3.17,2.08-.2.17-.39.33-.57.48-1.3,1.06-2.29,1.59-2.98,1.59v-4.15h-7.27v.98c.36.13.69.27.99.4s.56.28.79.45c.46.36.69.72.69,1.09v18.79c.3.16.77.25,1.44.25.19,0,.72-.05,1.58-.15.46-.06.82-.1,1.09-.1h.69v-14.54c0-.69.39-1.18,1.18-1.48.79-.33,1.73-.5,2.82-.5,1.32,0,2.43.14,3.31.45.92.3,1.39.89,1.39,1.78-.04,1.38-.05,2.65-.05,3.8s-.01,2.21-.05,3.17c-.07.98-.11,1.94-.12,2.87-.02.92-.06,1.83-.13,2.72.04.83.15,1.41.35,1.73.26.04.51.05.74.05h.85c.33.04.59.05.79.05h.59c.1-.03.31-.05.65-.05.16-.03.31-.05.44-.05h.45v-14.79c0-.43.15-.83.45-1.19.13-.18.28-.31.46-.41.17-.08.36-.13.58-.13h4.7c.43.07.84.25,1.24.54.16.16.3.3.42.4.11.1.24.19.37.3v13.3c.03.83.41,1.55,1.13,2.18.8.69,1.68,1.04,2.67,1.04,1.42-.04,2.48-.45,3.16-1.24.2-.2.63-.86,1.29-1.98v-2.52c-.46.13-.94.39-1.43.79Z"/>
      <path class="cls-2" d="M188.36,20.23c-1.75-1.58-3.34-2.37-4.8-2.37h-1.73c-1.95.07-4.03,1.36-6.24,3.91-2.21,2.61-3.31,4.99-3.31,7.17v2.57c.07,1.35.78,2.9,2.13,4.65,1.81,2.28,4,3.41,6.57,3.41,2.93,0,5.48-1.53,7.62-4.6,1.71-2.44,2.57-4.52,2.57-6.23v-2.87c0-2.01-.94-3.89-2.82-5.64ZM187.02,34.47c-1.03.92-2.11,1.39-3.27,1.39-1.45-.07-3.18-.79-5.19-2.18-2.41-1.71-3.61-3.51-3.61-5.39v-2.22c0-1.19.54-2.28,1.63-3.27.96-.86,1.83-1.29,2.62-1.29,1.85.07,3.74.97,5.69,2.72,2.28,2.14,3.42,4.63,3.42,7.47-.04,1.09-.46,2.01-1.29,2.77Z"/>
      <path class="cls-2" d="M169.91,33.63c-.27,0-.91.35-1.93,1.04-1.03.66-2.38.99-4.06.99-1.75-.07-3.3-.72-4.65-1.98-1.39-1.38-2.08-2.96-2.08-4.75.07-1.85.37-3.3.94-4.35.69-1.12,1.62-1.68,2.77-1.68h5.34v.69c-.04,1.38-.61,2.09-1.73,2.13-1.15.1-1.73.48-1.73,1.14,0,.53.1.89.3,1.09.23.2.59.3,1.09.3.59-.07,1.38-.97,2.37-2.72.1-.13,1.3-2.46,3.61-6.97-.63-.27-1.17-.43-1.63-.5-.4-.1-.88-.15-1.44-.15-.03,0-.46.03-1.29.1-.39.07-.72.1-.99.1h-.64c-2.31.07-4.68,2.08-7.12,6.03-2.05,3.27-3.07,5.41-3.07,6.43v3.22c0,1.02.69,2.24,2.08,3.66,1.42,1.42,2.8,2.13,4.15,2.13h3.27c1.52,0,2.92-.64,4.21-1.93.39-.4,1.38-1.68,2.96-3.86-.3-.1-.54-.15-.74-.15Z"/>
      <path class="cls-2" d="M152.25,35.61c-.13.03-.28.05-.45.05s-.36.02-.6.05c-.79-.03-1.41-.51-1.88-1.43-.16-.27-.34-.74-.54-1.44V0h-6.68c.36.4.69.77.99,1.12.3.34.59.7.89,1.06.5.76.74,1.32.74,1.68v31.85c.07.83.54,1.67,1.44,2.52,1.02.89,2.14,1.33,3.36,1.33,1.06-.07,1.83-.3,2.32-.69.69-.6,1.04-1.49,1.04-2.67-.07-.39-.28-.59-.64-.59Z"/>
      <path class="cls-2" d="M137.91,33.74c-1.68,1.35-3.69,2.03-6.04,2.03-.86,0-1.58-.2-2.17-.6-.13-.07-.25-.14-.34-.25-.1-.1-.22-.21-.35-.34.06-.46.34-1.05.85-1.76.08-.1.15-.21.24-.31.24-.33.6-.74,1.09-1.24.16.1.31.19.44.27.13.08.28.16.45.22.53.3,1.02.45,1.49.45.39,0,.68-.05.84-.15.4-.3.6-.72.6-1.29-.04-.43-.22-.69-.55-.79-.36-.13-.79-.2-1.29-.2h-.54c.07-.69,1.19-2.64,3.36-5.83,2.28-3.27,3.47-5.29,3.56-6.09-.16.03-.33.05-.5.05h-.64c-.36-.03-1.12-.05-2.28-.05h-4.7c-1.39,0-2.87,1-4.44,2.99-.1.13-.21.27-.31.42-1.18,1.58-2.39,3.69-3.61,6.33-.27.59-.51,1.16-.74,1.7-.23.55-.46,1.1-.69,1.66v1.93c.06.83.37,1.71.94,2.67.3.46.6.92.89,1.38.3.46.62.94.99,1.44-.07.46-.5,1.3-1.29,2.52-.86,1.32-1.29,2.39-1.29,3.22,0,.59.15,1.09.45,1.49.33.43.89.64,1.68.64.63,0,1.09-.1,1.38-.3.36-.16.54-.46.54-.89-.07-.66-.34-1.1-.84-1.34-.33-.1-.64-.19-.94-.3-.3-.1-.59-.19-.89-.3.39-1.18.84-2.08,1.33-2.67.53-.59,1.12-.89,1.78-.89h5.98c1.35-.07,2.59-.48,3.71-1.23,1.18-.83,2.57-2.56,4.15-5.2v-1.88c-.3.23-1.07,1.06-2.32,2.48ZM125.19,27.4c.13-.1.35-.56.65-1.38.33-.92.84-1.9,1.53-2.92h6.88c-.1.4-.98,1.91-2.63,4.55-.92,1.49-1.71,2.72-2.37,3.71-.33.5-.63.93-.91,1.3-.28.37-.54.68-.77.93-.96-.76-1.52-1.45-1.68-2.08-.2-.66-.43-1.07-.69-1.24v-2.87Z"/>
      <path class="cls-2" d="M118.08,19.1c-.33-.3-.63-.57-.92-.82-.28-.24-.55-.5-.82-.77-.4-.3-.79-.44-1.19-.44h-4.4c-.59,2.24-1.1,3.43-1.53,3.56-.16.1-.25,1.06-.25,2.87h-.3c-.16.1-.25.23-.25.39.04.17.09.36.18.6.08.23.21.53.37.89h1.78v-1.63c-.16-.23-.33-.45-.5-.65-.13-.23-.19-.44-.19-.64,0-.43.1-.69.3-.79.23-.17.56-.25.99-.25h2.02c.73.07,1.27.23,1.64.5.43.39.64.92.64,1.58,0,.75-.64,2.92-1.93,6.48-1.29,3.59-2.28,5.69-2.97,6.28-.43-.66-1.18-2.57-2.28-5.74-.49-1.45-.99-2.89-1.48-4.3-.49-1.41-.99-2.87-1.49-4.35-.99-2.93-1.58-4.45-1.78-4.55-.36-.2-.63-.3-.79-.3-.27,0-.51.1-.74.3l-.25.25c-1.19,0-2.32.05-3.41.14-.5.07-.97.13-1.41.18s-.9.11-1.36.18c1.42.23,2.72,1.18,3.91,2.87,1.02,1.42,1.53,2.52,1.53,3.31-.07.46-.68,2.29-1.83,5.49-.11.3-.22.59-.33.86-1.19,3.02-2.12,4.75-2.78,5.17-.46-.76-.95-1.81-1.46-3.15-.51-1.33-1.04-2.98-1.61-4.92-2.08-6.76-3.65-10.14-4.7-10.14-.2.03-.6.05-1.21.07-.61.02-1.44.06-2.5.12-.27.04-.59.05-.99.05h-1.23c1.45,1.02,2.92,3.26,4.4,6.73.33.76.77,1.91,1.31,3.46.54,1.55,1.21,3.51,2,5.89,1.12,3.4,1.91,5.29,2.37,5.69h6.28c-.33-.86-.69-1.43-1.09-1.73-.13-.1-.2-.2-.2-.3.69-2.17,1.24-3.8,1.64-4.9.23-.62.45-1.18.66-1.69.92-2.2,1.69-3.39,2.31-3.55,1.68,5.05,2.87,8.41,3.56,10.09.59,1.32,1.07,1.98,1.44,1.98.19,0,.53-.05.98-.15.89,0,1.71-.05,2.48-.14.43-.07.84-.13,1.24-.18.39-.05.79-.11,1.18-.18-.43-.33-.69-.67-.79-1.04l5.74-16.12v-2.57Z"/>
      <path class="cls-1" d="M45.45,56.86l-9.35,28.09h-.59c-.07-.13-.16-.37-.27-.72-.12-.35-1.41-3.98-1.41-3.98l-5.18-12.95s-1.08-2.45-1.42-3.37c-.35-.92-.87-2.28-1.56-4.06-.63-1.61-1.42-2.42-2.37-2.42h-10.85l-2.57.25c-.53,1.02-.96,1.91-1.31,2.67-.35.76-.63,1.4-.87,1.93-1.45,3.13-2.18,5.08-2.18,5.84.06.76.13,1.27.2,1.53.2.33.58.49,1.14.49.59,0,.97-.1,1.14-.3.2-.3.3-.68.3-1.14s-.2-.87-.59-1.24c-.4-.4-.59-.64-.59-.74.16-.46.3-.84.4-1.14.1-.3.2-.54.3-.74.59-1.25,1.29-1.88,2.08-1.88h9.07v25.77c0,.13-.1.35-.3.64-.36.49-.66.74-.89.74-.63-.2-1.22-.39-1.78-.57-.56-.18-1.12-.35-1.68-.52-1.06-.36-2.06-.54-3.02-.54-2.93.07-5.57,1.12-7.91,3.17-2.24,1.95-3.36,3.86-3.36,5.74v3.61c.36,1.45.68,2.44.94,2.97,1.02,1.95,2.47,2.92,4.35,2.92h1.98c1.09-.07,2.24-.53,3.46-1.38,1.52-1.19,2.28-2.56,2.28-4.11-.03-1.38-.49-2.49-1.38-3.31-.96-.86-2.08-1.29-3.36-1.29-1.09,0-1.98.25-2.67.74-.69.56-1.04,1.38-1.04,2.47,0,1.15.64,1.73,1.93,1.73,1.05-.03,1.58-.41,1.58-1.14,0-.89-.15-1.38-.45-1.48-.26-.07-.52-.12-.77-.17-.25-.05-.5-.11-.77-.17.13-.43.38-.73.74-.89.36-.17.84-.25,1.44-.25,1.05,0,2.01.45,2.87,1.34.72.76,1.09,1.5,1.09,2.23,0,1.25-.69,2.42-2.08,3.51-1.19.96-2.32,1.43-3.41,1.43-1.71-.03-3.13-.69-4.25-1.98-.89-1.09-1.34-2.01-1.34-2.77v-1.83c.03-1.38.91-2.8,2.62-4.25,1.65-1.35,3.02-2.03,4.11-2.03h2.37c1.02.07,2.21.43,3.56,1.09.56.3,1.15.66,1.78,1.09.49-.07,1.5-1.19,3.02-3.36.26-.4.58-.87.94-1.41.36-.54.77-1.19,1.24-1.95l.1-.19.25-24c.82,1.88,1.61,3.72,2.35,5.51.74,1.8,1.48,3.59,2.2,5.37.43,1.06.9,2.23,1.41,3.54.51,1.3,1.1,2.76,1.76,4.38.2.53.4,1.04.59,1.53l.59,1.48c.46.89.85,1.67,1.16,2.35.31.68.57,1.24.77,1.71.33.77,1.14,2.52,1.39,3.19.16.31,1.63.42,1.63.42l10.49-31.41,1.78-.1c.16.03.35.05.54.05h.79c.3.03.58.05.84.05h.79c-.36.26-.68.49-.96.69-.28.2-.52.4-.72.59-.3.26-.53.43-.69.49l.19,27.88c.23-.21.46-.52.7-.8v.44s3.75-2.33,3.75-2.33v-.22c.29-.12.59-.23.89-.33v-26.08c0-.43.74-1.14,2.23-2.13,1.12-.82,2.16-1.83,3.12-3.02v-.99h-13.25Z"/>
      <path class="cls-1" d="M99.99,86.83c-.43,0-.81.4-1.14,1.19-.4.76-.79,1.14-1.19,1.14-1.06,0-1.68-.69-2.23-1.93-.35-.8-7.77-24.64-7.77-24.64.2-.79.61-1.5,1.24-2.12,1.29-1.28,1.93-2.14,1.93-2.57.13-.03.2-.1.2-.2,0-.26-.07-.53-.2-.79h-18.99c-1.19.4-3,2.27-5.44,5.63-2.41,3.39-3.61,5.55-3.61,6.47.03,2.17.91,3.84,2.62,4.99l2.67,1.88c-.03.07-.07.2-.12.4-.05.2-3.54,11.06-3.76,11.62,0,0-2.76-.9-4.9-.9-4.34,0-8.71,1.58-11.28,5.16-.16.22-.1.78.41.47,2.2-1.34,3.92-2.77,8.85-2.77,3.95,0,6.8,2.79,9.87,4.61.56-1.42,1.1-2.92,1.63-4.5.53-1.58,1.05-3.28,1.58-5.09.69-2.21,1.24-3.44,1.63-3.71l7.85,4.23s7.03-3.75,7.98-4.23c.3.07.54.49.74,1.29.07.23.12.45.15.67.03.21.08.45.15.72.72,2.44,1.33,4.39,1.81,5.84.48,1.45.85,2.42,1.11,2.92.63.99,1.53,1.48,2.72,1.48h1.38c.66-.07,1.65-1.09,2.97-3.07,1.09-1.62,1.71-2.69,1.88-3.21v-.94h-.74ZM83.42,64.77c-.3.46-.45.78-.45.94.4,1.06.73,1.95,1.01,2.7.28.74.5,1.36.67,1.85,1.09,3.07,1.63,4.85,1.63,5.34-.07.3-.82.89-2.28,1.78-1.52.96-2.64,1.48-3.36,1.58v-16.82l4.61.04c-.33.56-1.02,1.49-1.84,2.58ZM65.96,72.19c-.92-.89-1.38-2.03-1.38-3.41.3-1.09.59-1.95.89-2.57.99-1.88,2.31-3.23,3.96-4.06,0,0,9.52.04,9.79.04v16.87c-1.29-.69-3.07-1.67-4.25-2.36-.92-.53-1.63-.95-2.03-1.27.21-.14,1.09-1.4,1.29-1.99.26-.66.45-1.19.54-1.61.1-.41.15-.72.15-.92-.07-1.95-.59-3.33-1.58-4.15-.76-.63-1.78-.94-3.07-.94-.89.03-1.62.25-2.18.64-.63.4-.94.99-.94,1.78,0,.56.15.99.44,1.29.33.3.74.45,1.24.45.43-.07.82-.25,1.19-.54.4-.4.59-.74.59-1.04-.03-.03-.05-.08-.05-.15-.1.1-.2.15-.3.15v-.74h.74c.72.03,1.25.3,1.58.79.26.4.4.91.4,1.53-.07,1.12-.59,2.01-1.58,2.67-.79.56-1.48.84-2.08.84-1.38-.07-2.51-.49-3.36-1.29Z"/>
      <path class="cls-1" d="M319.88,86.83c-.43,0-.81.4-1.14,1.19-.4.76-.79,1.14-1.19,1.14-1.06,0-1.68-.69-2.23-1.93-.35-.8-7.77-24.64-7.77-24.64.2-.79.61-1.5,1.24-2.12,1.29-1.28,1.93-2.14,1.93-2.57.13-.03.2-.1.2-.2,0-.26-.07-.53-.2-.79h-18.99c-1.19.4-3,2.27-5.44,5.63-2.41,3.39-3.61,5.55-3.61,6.47.03,2.17.91,3.84,2.62,4.99l2.67,1.88c-.03.07-.07.2-.12.4-.05.2-3.54,11.06-3.76,11.62,0,0-.54,1.52-1.48,3.52-1.84,3.93,1.36,1.22,4.43,3.04.56-1.42,1.1-2.92,1.63-4.5.53-1.58,1.05-3.28,1.58-5.09.69-2.21,1.24-3.44,1.63-3.71l7.85,4.23s7.03-3.75,7.98-4.23c.3.07.54.49.74,1.29.07.23.12.45.15.67.03.21.08.45.15.72.72,2.44,1.33,4.39,1.81,5.84.48,1.45.85,2.42,1.11,2.92.63.99,1.53,1.48,2.72,1.48h1.38c.66-.07,1.65-1.09,2.97-3.07,1.09-1.62,1.71-2.69,1.88-3.21v-.94h-.74ZM303.31,64.77c-.3.46-.45.78-.45.94.4,1.06.73,1.95,1.01,2.7.28.74.5,1.36.67,1.85,1.09,3.07,1.63,4.85,1.63,5.34-.07.3-.82.89-2.28,1.78-1.52.96-2.64,1.48-3.36,1.58v-16.82l4.61.04c-.33.56-1.02,1.49-1.84,2.58ZM285.85,72.19c-.92-.89-1.38-2.03-1.38-3.41.3-1.09.59-1.95.89-2.57.99-1.88,2.31-3.23,3.96-4.06,0,0,9.52.04,9.79.04v16.87c-1.29-.69-3.07-1.67-4.25-2.36-.92-.53-1.63-.95-2.03-1.27.21-.14,1.09-1.4,1.29-1.99.26-.66.45-1.19.54-1.61.1-.41.15-.72.15-.92-.07-1.95-.59-3.33-1.58-4.15-.76-.63-1.78-.94-3.07-.94-.89.03-1.62.25-2.18.64-.63.4-.94.99-.94,1.78,0,.56.15.99.44,1.29.33.3.74.45,1.24.45.43-.07.82-.25,1.19-.54.4-.4.59-.74.59-1.04-.03-.03-.05-.08-.05-.15-.1.1-.2.15-.3.15v-.74h.74c.72.03,1.25.3,1.58.79.26.4.4.91.4,1.53-.07,1.12-.59,2.01-1.58,2.67-.79.56-1.48.84-2.08.84-1.38-.07-2.51-.49-3.36-1.29Z"/>
      <path class="cls-1" d="M131.35,87.51c-.13.11-.25.22-.39.33-.38.37-1.31,1.06-1.93,1.06l-13.24.03v-10.55h4.54c1.64-1,2.82-2.05,3.53-3.17.56-.79.84-1.53.84-2.23h-.3c-.5.02-1.01.02-1.51,0h-3.65c2.87-3.69,5.52-7.1,7.02-9.01l5.94-6.86v-.25h-26.9c-.1.79-.84,2.52-2.23,5.19-1.38,2.67-2.08,4.34-2.08,5,0,.79.2,1.43.59,1.93s.89.74,1.48.74c.56,0,1.02-.15,1.38-.45.4-.33.59-.82.59-1.48-.03-.56-.2-.89-.49-.99-.36-.1-1.01-.15-1.93-.15v-1.29c.13-.33.4-.86.79-1.58.63-1.09,1.17-1.45,1.63-1.45l9.79-.04v10.69h-3.09c-.33.11-.66.22-1,.35-1.12.59-2.16,2.06-3.12,4.4v.64h4.04l-12.6,15.88v.2h28.42c.99-2.01,1.73-3.35,2.23-4.01.53-.73,1.09-1.19,1.68-1.38.17.36.25.76.25,1.19,0,.2-.05.4-.15.59-.03.03-.05.07-.05.1l-.05.05c.03.33.26.59.69.79.16.1.4.17.69.2.16-.13.28-.2.35-.2.49-.4.74-.73.74-.99-.03-.43-.88-1.53-2.53-3.28ZM124.48,62.25l-8.19,10.32v-10.28l8.19-.04ZM114.36,79.28v9.64h-7.49s3.43-4.41,7.49-9.64Z"/>
      <path class="cls-1" d="M166.83,82.8c-.23.2-.35.49-.35.89.06.49.25.92.54,1.29.36.36.76.54,1.19.54.59,0,1.09-.25,1.48-.74.46-.49.69-1.1.69-1.83-.07-.99-.48-1.83-1.24-2.52-.89-.69-1.86-1.04-2.92-1.04-1.29.07-2.57.87-3.86,2.42-1.25,1.65-1.88,3.41-1.88,5.29v2.1h-18.23c.46-.73,1.2-1.49,2.06-2.15,1.42-1.12,2.13-2.03,2.13-2.72v-6.45h7.52c1.1,0,1.98.32,2.18,1.01.1.33.25.89.45,1.68h.79v-10.09h-.87c-.2.73-.74,2.62-1.54,2.62h-8.52v-11.08h12.07c.03,1.45.11,2.7.25,3.76.13,1.06.33,1.93.59,2.62.89,2.18,2.52,3.26,4.9,3.26,1.15-.07,2.09-.48,2.82-1.24.63-.73.94-1.43.94-2.13-.07-.86-.35-1.52-.84-1.98-.56-.53-1.14-.79-1.73-.79-.76.07-1.37.3-1.83.69-.46.43-.69.87-.69,1.34,0,.36.15.71.45,1.04.33.33.63.49.89.49.53,0,.84-.3.94-.89.13-.63.28-1.07.45-1.34.2.17.37.31.52.45.15.13.27.26.37.4.23.23.35.49.35.79-.07.56-.3,1.02-.69,1.38-.49.4-1.07.59-1.73.59-1.72-.03-2.57-1.09-2.57-3.17.03-1.12.54-2.49,1.53-4.11,2.34-3.79,3.54-5.92,3.61-6.38h-29.25c-1.09,1.88-2.23,3.96-3.41,6.23-1.15,2.28-1.73,3.55-1.73,3.81.03.49.15.87.35,1.14.23.33.58.49,1.04.49.49-.07.86-.15,1.09-.25.36-.23.54-.46.54-.69-.07-.69-.35-1.2-.84-1.53-.23-.2-.35-.36-.35-.49l.94-1.88c.76-1.25,1.43-1.88,2.03-1.88h2.1c.91,0,1.63.37,1.63,1.1v24.82c-1.19,1.25-3.76,3.93-4.87,5.1,0,.46,0,1.65.43,1.65l31.15-.02c1.11,0,1.58-.52,1.58-.99-.56-.86-1.1-1.7-1.63-2.52-.53-.82-1.06-1.66-1.58-2.52-1.02-1.75-1.53-3.31-1.53-4.7.03-1.42.54-2.39,1.53-2.92.16-.07.38-.13.64-.2.56.07.97.25,1.24.54.33.36.49.84.49,1.43-.13-.03-.38-.05-.74-.05-.46,0-.81.1-1.04.3Z"/>
      <path class="cls-1" d="M424.11,82.8c-.23.2-.35.49-.35.89.06.49.25.92.54,1.29.36.36.76.54,1.19.54.59,0,1.09-.25,1.48-.74.46-.49.69-1.1.69-1.83-.07-.99-.48-1.83-1.24-2.52-.89-.69-1.86-1.04-2.92-1.04-1.29.07-2.57.87-3.86,2.42-1.25,1.65-1.88,3.41-1.88,5.29v2.1h-18.23c.46-.73,1.2-1.49,2.06-2.15,1.42-1.12,2.13-2.03,2.13-2.72v-6.45h7.52c1.1,0,1.98.32,2.18,1.01.1.33.25.89.45,1.68h.79v-10.09h-.87c-.2.73-.74,2.62-1.54,2.62h-8.52v-11.08h12.07c.03,1.45.11,2.7.25,3.76.13,1.06.33,1.93.59,2.62.89,2.18,2.52,3.26,4.9,3.26,1.15-.07,2.09-.48,2.82-1.24.63-.73.94-1.43.94-2.13-.07-.86-.35-1.52-.84-1.98-.56-.53-1.14-.79-1.73-.79-.76.07-1.37.3-1.83.69-.46.43-.69.87-.69,1.34,0,.36.15.71.45,1.04.33.33.63.49.89.49.53,0,.84-.3.94-.89.13-.63.28-1.07.45-1.34.2.17.37.31.52.45.15.13.27.26.37.4.23.23.35.49.35.79-.07.56-.3,1.02-.69,1.38-.49.4-1.07.59-1.73.59-1.72-.03-2.57-1.09-2.57-3.17.03-1.12.54-2.49,1.53-4.11,2.34-3.79,3.54-5.92,3.61-6.38h-29.25c-1.09,1.88-2.23,3.96-3.41,6.23-1.15,2.28-1.73,3.55-1.73,3.81.03.49.15.87.35,1.14.23.33.58.49,1.04.49.49-.07.86-.15,1.09-.25.36-.23.54-.46.54-.69-.07-.69-.35-1.2-.84-1.53-.23-.2-.35-.36-.35-.49l.94-1.88c.76-1.25,1.43-1.88,2.03-1.88h2.1c.91,0,1.63.37,1.63,1.1v24.82c-1.19,1.25-3.76,3.93-4.87,5.1,0,.46,0,1.65.43,1.65l31.15-.02c1.11,0,1.58-.52,1.58-.99-.56-.86-1.1-1.7-1.63-2.52-.53-.82-1.06-1.66-1.58-2.52-1.02-1.75-1.53-3.31-1.53-4.7.03-1.42.54-2.39,1.53-2.92.16-.07.38-.13.64-.2.56.07.97.25,1.24.54.33.36.49.84.49,1.43-.13-.03-.38-.05-.74-.05-.46,0-.81.1-1.04.3Z"/>
      <path class="cls-1" d="M335.59,56.91h-5.44c-6.69,0-13.01,4.45-13.01,11.67,0,3.35,2.25,6.95,7.68,6.95.74,0,.83.74.83,1.36v11.51c-.03,1.19-.61,2.32-2.13,3.77-.76.75-1.1,1.29-1.24,1.68-.09.24.09.59.6.59h19.79c.4-.03.86-.49,1.39-1.38.89-1.45,1.6-2.51,2.13-3.17.3-.36,1.53-1.59,3.66-4.25,2.88-3.6,4.06-7.41,4.06-13.26,0-4.31-4.3-15.47-18.3-15.47ZM324.76,74.02h-1.78c-.79-.36-1.35-.68-1.68-.94-1.09-.99-1.63-2.42-1.63-4.3.53-1.52,1.07-2.62,1.63-3.31,1.78-2.21,4.4-3.31,7.86-3.31h6.18v27.45h-7.12c.17-.1.35-.26.54-.47.2-.21.44-.5.74-.87.4-.43.81-.82,1.24-1.19v-19.09c-.03-.82-.49-1.6-1.38-2.32-.96-.76-2.13-1.14-3.51-1.14-1.12.07-2.11.43-2.97,1.09-.86.73-1.29,1.43-1.29,2.13v1.63c.07.56.33,1.12.79,1.68.56.56,1.07.84,1.53.84h1.53c.56-.07,1.02-.35,1.39-.84.4-.63.59-1.19.59-1.68,0-.59-.2-1.02-.59-1.29-.4-.3-.86-.45-1.39-.45-.89.07-1.33.58-1.33,1.53.07.43.13.68.2.74.1.1.36.18.79.25l-.1.1c-.1.03-.26.05-.5.05-.36-.03-.74-.25-1.14-.64-.4-.49-.59-.91-.59-1.24.07-.43.38-.92.94-1.48.76-.73,1.55-1.09,2.37-1.09.96.03,1.73.4,2.32,1.09.76.86,1.14,1.73,1.14,2.62,0,.79-.45,1.68-1.34,2.67-1.06,1.19-2.21,1.78-3.46,1.78ZM343.6,89.6h-6.83v-27.43c7.06.27,12.81,4.21,12.81,12.4,0,5.73-2.13,10.31-2.92,12.26-.78,1.95-2.42,2.77-3.07,2.77Z"/>
      <path class="cls-1" d="M384.97,62.4h2.72c1.29,0,2.26-.89,2.92-2.67.46-1.19.77-1.88.94-2.08v-.79h-6.08c-.07.26-2.79,5.54-3.12,6.13v20.28h-.4s-6.6-11.2-9.91-16.9h0c-4.38-7.78-11.03-9.73-15.89-9.73-5.5,0-9.11,2.24-11.68,4.91.56.43,1.06.91,1.52,1.43,2.36-1.53,5.65-2.78,9.98-2.78,2.31,0,4.13.69,5.64,1.79v25.06c0,.36-1.01,2.66-1.78,2.66-.33,0-.94-.2-1.83-.59-.96-.4-1.91-.59-2.87-.59-2.34,0-4.3,1.24-5.89,3.71-.66.99-.99,1.73-.99,2.23s.2.74.59.74c.36,0,.69-.3.99-.89.63-1.22,1.55-1.83,2.77-1.83.46.03.99.12,1.58.27.59.15,1.27.39,2.03.72.79.36,1.57.69,2.32.99.56-.03,1.29-.89,2.18-2.57.92-1.71,1.61-2.62,2.05-3.07.44-.46.62-1.38.62-1.91v-23.28c.58.64,1.11,1.34,1.61,2.08l2.18,3.81v15.94l.53-.46c.57-.5.9-1.22.9-1.98v-10.99l12.25,21.39c.5.69,1.29,1.05,1.82,1.05h4.15c1.25-.03,2.08-.51,2.47-1.43.03-.07.2-.48.5-1.24.3-.76.74-1.9,1.33-3.41v-.99h-.74c-.46.59-.86,1.19-1.19,1.78-.4.3-1.4.45-3.02.45s-1.82-1.03-1.82-3.81v-21.86c0-.53.2-1.04.59-1.53Z"/>
      <path class="cls-1" d="M453.37,63.97l1.01-1.15c.75-.79,3.93-4.22,4.94-5.66v-.25h-21.12c-.43.07-.73.2-.89.39-.49.49-1.47,1.84-2.92,4.05-.07.07-.29.36-.67.89-.38.53-.95,1.3-1.71,2.32-1.45,2.3-2.18,4.41-2.18,6.32.03,2.9,1.38,4.76,4.06,5.58.99.16,1.95.31,2.89.44s1.89.28,2.84.44c-.17.53-.81,1.4-1.93,2.62-1.42,1.42-4.57,4.84-6.18,6.62-1.98,2.18-3.56,4.17-4.75,5.98-.29.45-.58.87-.8,1.31-.15.3-.13.57.36.57h21.96c.43,0,1.34-1.03,2.72-3.11.96-1.38,1.73-2.5,2.33-3.36.59-.86,1.04-1.47,1.33-1.83.33-.4.7-.84,1.11-1.33.41-.49.9-1.07,1.46-1.73,1.25-1.68,1.88-3.59,1.88-5.73,0-3.32-2.61-5.66-6.41-5.66h-8.42v-9.35h8.54v.45c-2.15,2.4-3.34,3.95-3.56,4.65-.16.74-.13,1.27-.15,1.55.09.37.4.64.94.81.57.18.96.19,1.17.05.28-.22.48-.56.62-1,.14-.44.07-.89-.2-1.36-.26-.49-.38-.79-.35-.88.29-.39.53-.71.72-.97.12-.16.71-.92,1.34-1.67ZM440.46,78.72c.97-.97,1.65-1.13,2.21-1.13h.19v11.53l-11.84-.16c.89-1.02,9.01-9.82,9.43-10.24ZM451.57,77.58c1.21,0,3.12,1.65,3.12,2.87v1.58c0,.77-.68,1.76-1.83,3.91-1.19,2.18-2.47,3.26-3.06,3.26l-5.49-.07v-11.55h7.27ZM442.87,71.69h-3.62c-2.01-.07-3.4-.33-4.15-.79-.76-.53-1.14-1.62-1.14-3.26.03-.4.07-.82.12-1.26s.14-.95.27-1.51c.16-.56.3-1.05.42-1.48.12-.43.26-.77.42-1.04h7.68v9.35Z"/>
      <path class="cls-1" d="M484.69,63.97l1.01-1.15c.75-.79,3.93-4.22,4.94-5.66v-.25h-21.12c-.43.07-.73.2-.89.39-.49.49-1.47,1.84-2.92,4.05-.07.07-.29.36-.67.89-.38.53-.95,1.3-1.71,2.32-1.45,2.3-2.18,4.41-2.18,6.32.03,2.9,1.38,4.76,4.06,5.58.99.16,1.95.31,2.89.44s1.89.28,2.84.44c-.17.53-.81,1.4-1.93,2.62-1.42,1.42-4.57,4.84-6.18,6.62-1.98,2.18-3.56,4.17-4.75,5.98-.29.45-.58.87-.8,1.31-.15.3-.13.57.36.57h21.96c.43,0,1.34-1.03,2.72-3.11.96-1.38,1.73-2.5,2.33-3.36.59-.86,1.04-1.47,1.33-1.83.33-.4.7-.84,1.11-1.33.41-.49.9-1.07,1.46-1.73,1.25-1.68,1.88-3.59,1.88-5.73,0-3.32-2.61-5.66-6.41-5.66h-8.42v-9.35h8.54v.45c-2.15,2.4-3.34,3.95-3.56,4.65-.16.74-.13,1.27-.15,1.55.09.37.4.64.94.81.57.18.96.19,1.17.05.28-.22.48-.56.62-1,.14-.44.07-.89-.2-1.36-.26-.49-.38-.79-.35-.88.29-.39.53-.71.72-.97.12-.16.71-.92,1.34-1.67ZM471.78,78.72c.97-.97,1.65-1.13,2.21-1.13h.19v11.53l-11.84-.16c.89-1.02,9.01-9.82,9.43-10.24ZM482.88,77.58c1.21,0,3.12,1.65,3.12,2.87v1.58c0,.77-.68,1.76-1.83,3.91-1.19,2.18-2.47,3.26-3.06,3.26l-5.49-.07v-11.55h7.27ZM474.18,71.69h-3.62c-2.01-.07-3.4-.33-4.15-.79-.76-.53-1.14-1.62-1.14-3.26.03-.4.07-.82.12-1.26s.14-.95.27-1.51c.16-.56.3-1.05.42-1.48.12-.43.26-.77.42-1.04h7.68v9.35Z"/>
      <path class="cls-1" d="M281.08,87.65c-.13-.07-.26-.11-.4-.15-.3,0-.54.4-.74,1.19-.26.79-.73,1.19-1.38,1.19h-3.02v-26.76c0-.43.74-1.14,2.23-2.13,1.12-.82,2.16-1.83,3.12-3.02v-.99h-13.25l-9.35,28.09h-.59c-.07-.13-.16-.37-.27-.72-.12-.35-1.41-3.98-1.41-3.98l-5.18-12.95s-1.08-2.45-1.42-3.37c-.35-.92-.87-2.28-1.56-4.06-.63-1.61-1.42-2.42-2.37-2.42h-7.89l-2.57.25c-.53,1.02-.96,1.91-1.31,2.67-.35.76-.63,1.4-.87,1.93-1.45,3.13-2.18,5.08-2.18,5.84.06.76.13,1.27.2,1.53.2.33.58.49,1.14.49.59,0,.97-.1,1.14-.3.2-.3.3-.68.3-1.14s-.2-.87-.59-1.24c-.4-.4-.59-.64-.59-.74.16-.46.3-.84.4-1.14.1-.3.2-.54.3-.74.59-1.25,1.29-1.88,2.08-1.88h6.11v25.77c0,.13-.1.35-.3.64-.36.49-.66.74-.89.74-.63-.2-1.22-.39-1.78-.57-.56-.18-1.12-.35-1.68-.52-1.06-.36-2.06-.54-3.02-.54-2.93.07-5.57,1.12-7.91,3.17-2.24,1.95-3.36,3.86-3.36,5.74v3.61c.13.53.28.88.41,1.01.13.13.6.13.6-.48s.13-1.96.13-1.96c.03-1.38.91-2.8,2.62-4.25,1.65-1.35,3.02-2.03,4.11-2.03h2.37c1.02.07,2.21.43,3.56,1.09.56.3,1.15.66,1.78,1.09.49-.07,1.5-1.19,3.02-3.36.26-.4.58-.87.94-1.41.36-.54.77-1.19,1.24-1.95l.1-.19.25-24c.82,1.88,1.61,3.72,2.35,5.51.74,1.8,1.48,3.59,2.2,5.37.43,1.06.9,2.23,1.41,3.54.51,1.3,1.1,2.76,1.76,4.38.2.53.4,1.04.59,1.53l.59,1.48c.46.89.85,1.67,1.16,2.35.31.68.57,1.24.77,1.71.33.77,1.14,2.52,1.39,3.19.16.31,1.63.42,1.63.42l10.49-31.41,1.78-.1c.16.03.35.05.54.05h.79c.3.03.58.05.84.05h.79c-.36.26-.68.49-.96.69-.28.2-.52.4-.72.59-.3.26-.53.43-.69.49l.2,29.43.59.59h7.12c.46-.96,1.45-2.65,2.97-5.09.4-.63.59-1.09.59-1.38-.07-.2-.2-.35-.4-.45Z"/>
      <path class="cls-1" d="M199.27,75.11c-1.75-1.58-3.35-2.37-4.8-2.37h-1.73c-1.95.07-4.02,1.37-6.23,3.91-2.21,2.61-3.31,5-3.31,7.17v2.57c.07,1.35.77,2.9,2.13,4.65,1.81,2.28,4.01,3.41,6.58,3.41,2.93,0,5.47-1.53,7.62-4.6,1.71-2.44,2.57-4.52,2.57-6.23v-2.87c0-2.01-.94-3.89-2.82-5.64ZM197.94,89.35c-1.02.92-2.11,1.38-3.26,1.38-1.45-.07-3.18-.79-5.19-2.18-2.41-1.71-3.61-3.51-3.61-5.39v-2.23c0-1.19.54-2.28,1.63-3.26.96-.86,1.83-1.29,2.62-1.29,1.85.07,3.74.97,5.69,2.72,2.28,2.14,3.41,4.63,3.41,7.47-.03,1.09-.46,2.01-1.29,2.77Z"/>
      <path class="cls-1" d="M210.55,54.88c-.56.07-2.11,1.43-4.65,4.11-1.25,1.35-1.88,2.18-1.88,2.47v46.15c0,.57.48.91.75.62l2.96-4.48v-30.77c.16.07.38.1.64.1h.99c.2-.03.45-.05.74-.05h1.09c.46-.03.82-.05,1.09-.05h.69v-3.71h-5.24c.13-.33.13-.53,0-.59l.2-2.57v-7.12h4.85c-1.91,2.59-2.95,4.25-3.1,4.97-.09.76-.13,1.27-.12,1.54.13.36.46.6,1.01.72.58.12.97.1,1.17-.06.25-.25.43-.6.52-1.05.09-.45-.01-.9-.33-1.33-.31-.47-.45-.75-.43-.85.26-.42.46-.76.62-1.03.16-.27,1.44-2.29,2.17-3.09.74-.8,1.34-2.24,1.89-3.72v-.2h-5.64Z"/>
    </g>
  </g>
</svg>